<svg width="1000" height="1000" viewBox="0 0 1000 1000" fill="none" xmlns="http://www.w3.org/2000/svg">
<path d="M830.074 499.566C811.98 499.566 796.317 509.859 788.54 524.882L574.237 488.302C573.527 483.456 572.424 478.78 570.919 474.259L746.328 387.319C759.467 400.744 780.192 404.771 797.699 395.59C819.094 384.34 827.304 357.953 816.093 336.572C804.882 315.215 778.479 306.99 757.099 318.201C740.34 327.02 731.845 345.129 734.283 362.837L558.041 450.178C554.245 445.263 549.94 440.757 545.133 436.815L690.975 233.313C698.212 234.154 705.681 233.437 712.888 230.435C735.155 221.123 745.664 195.553 736.367 173.262C727.077 151.002 701.484 140.501 679.224 149.791C656.964 159.088 646.456 184.674 655.753 206.949C658.199 212.813 661.833 217.774 666.192 221.879L521.176 423.258C517.102 421.808 512.92 420.589 508.576 419.786L499.479 267.795C514.911 261.445 525.79 246.276 525.79 228.553C525.79 205.12 506.786 186.116 483.354 186.116C459.921 186.116 440.917 205.12 440.917 228.553C440.917 248.158 454.235 264.608 472.289 269.484L481.247 419.292C475.916 420.087 470.762 421.352 465.824 423.119L306.425 219.07C312.737 210.344 316.502 199.642 316.502 188.045C316.502 158.749 292.753 135 263.456 135C234.16 135 210.411 158.749 210.411 188.045C210.411 217.342 234.16 241.091 263.456 241.091C271.242 241.091 278.61 239.37 285.269 236.361L441.751 436.56C433.464 443.311 426.481 451.598 421.327 461.05L277.8 411.399C277.838 410.628 278.031 409.902 278.031 409.108C278.031 384.24 257.863 364.048 232.972 364.048C208.089 364.048 187.92 384.24 187.92 409.108C187.92 434.014 208.089 454.175 232.972 454.175C247.284 454.175 259.892 447.37 268.14 436.977L412.539 486.92C411.837 491.264 411.366 495.685 411.366 500.238C411.366 500.84 411.443 501.418 411.451 502.02L203.698 569.509C195.983 557.125 182.349 548.816 166.686 548.816C142.559 548.816 123 568.375 123 592.502C123 616.637 142.559 636.188 166.686 636.188C189.579 636.188 208.15 618.512 210.025 596.105L416.597 528.824C420.872 540.321 427.615 550.583 436.242 558.954L347.118 688.84C327.366 683.601 306.865 694.773 300.816 714.464C294.636 734.64 305.947 756.028 326.146 762.216C346.338 768.412 367.711 757.07 373.914 736.901C377.379 725.605 375.203 714.039 369.231 704.873L458.741 574.432C469.249 579.331 480.923 582.147 493.284 582.147C494.881 582.147 496.409 582.001 497.983 581.924L516.276 760.959C495.444 768.126 480.46 787.832 480.46 811.087C480.46 840.384 504.209 864.133 533.506 864.133C562.802 864.133 586.551 840.384 586.551 811.087C586.551 785.124 567.879 763.551 543.243 758.976L525.566 575.527C536.337 570.906 545.82 564.008 553.628 555.49L680.706 687.521C676.686 694.01 674.325 701.625 674.325 709.819C674.325 733.252 693.328 752.255 716.761 752.255C740.194 752.255 759.197 733.252 759.197 709.819C759.197 686.386 740.194 667.383 716.761 667.383C712.016 667.383 707.464 668.193 703.197 669.636C702.85 669.412 702.248 669.52 701.129 670.33L568.55 532.582C570.873 527.189 572.593 521.494 573.727 515.584L783.587 551.439C786.133 574.872 805.962 593.111 830.074 593.111C855.906 593.111 876.846 572.171 876.846 546.339C876.854 520.515 855.906 499.566 830.074 499.566Z" fill="#118DF0"/>
</svg>
