<svg width="5332" height="730" viewBox="0 0 5332 730" fill="none" xmlns="http://www.w3.org/2000/svg">
<path d="M1005 277.251V101H1581.21V277.251H1439.6V218.501H1522.46V159.75H1063.75V218.501H1264.1L1263.35 570.25H1322.1V218.501H1380.85V629H1204.6V277.251H1005ZM1862.91 452.749L1896.8 393.999L1999.24 570.25H2067.03C2051.96 546.147 1908.85 301.354 1896.8 277.251L1749.17 533.342L1694.19 629H1490.82C1502.12 610.17 1578.19 477.605 1651.25 350.312C1694.19 275.745 1741.64 192.138 1795.12 101H1862.91L1722.81 343.534L1592.5 570.25H1660.29C1752.94 406.803 1810.93 310.392 1896.8 159.75C1902.07 168.789 2167.2 628.247 2168.71 629H1965.34L1862.91 452.749ZM2332.91 159.75V452.749H2853.38V629H2274.16V570.25H2795.38V511.499H2274.16V101H2450.41V394.752H2391.66V159.75H2332.91ZM3275.93 452.749L3309.82 393.999L3412.26 570.25H3480.05C3464.98 546.147 3321.87 301.354 3309.82 277.251L3162.19 533.342L3107.21 629H2903.84C2915.14 610.17 2991.21 477.605 3064.28 350.312C3107.21 275.745 3154.66 192.138 3208.14 101H3275.93L3135.83 343.534L3005.52 570.25H3073.31C3165.96 406.803 3223.96 310.392 3309.82 159.75C3315.09 168.789 3580.22 628.247 3581.73 629H3378.36L3275.93 452.749ZM4266.4 629H4063.03L3994.49 510.746H3862.68V629H3687.18V335.248L4118.02 336.001C4166.97 336.001 4206.14 296.081 4206.14 247.876C4206.14 198.917 4166.97 159.75 4118.02 159.75H3745.93V218.501H4118.02C4133.83 219.254 4145.88 232.058 4145.88 247.876C4145.88 263.693 4133.83 276.498 4118.02 277.251H4117.26H4116.51H3687.18V101H4118.02C4199.36 101 4264.89 166.529 4264.89 247.876C4264.89 328.469 4199.36 394.752 4118.02 394.752L3745.93 393.999V570.25H3804.68V451.996H4028.38C4052.49 495.682 4093.16 562.718 4096.93 570.25H4164.71C4158.69 561.964 4124.04 500.201 4096.17 451.996H4163.96C4188.82 494.929 4213.67 539.368 4234.01 572.509L4266.4 629ZM4548.1 629H4371.85V101H4548.1V511.499H4489.35V159.75H4430.6V570.25H4548.1V629ZM5025.63 452.749L5059.53 393.999L5161.96 570.25H5229.75C5214.69 546.147 5071.58 301.354 5059.53 277.251L4911.9 533.342L4856.91 629H4653.55C4664.85 610.17 4740.92 477.605 4813.98 350.312C4856.91 275.745 4904.37 192.138 4957.84 101H5025.63L4885.54 343.534L4755.23 570.25H4823.02C4915.66 406.803 4973.66 310.392 5059.53 159.75C5064.8 168.789 5329.93 628.247 5331.44 629H5128.07L5025.63 452.749Z" fill="#118DF0"/>
<path d="M707.074 364.566C688.98 364.566 673.317 374.859 665.54 389.882L451.237 353.302C450.527 348.456 449.424 343.78 447.919 339.259L623.328 252.319C636.467 265.744 657.192 269.771 674.699 260.59C696.094 249.34 704.304 222.953 693.093 201.572C681.882 180.215 655.479 171.99 634.099 183.201C617.34 192.02 608.845 210.129 611.283 227.837L435.041 315.178C431.245 310.263 426.94 305.757 422.133 301.815L567.975 98.3133C575.212 99.1543 582.681 98.4368 589.888 95.4354C612.155 86.1225 622.664 60.5527 613.367 38.2621C604.077 16.0023 578.484 5.50129 556.224 14.791C533.964 24.0884 523.456 49.6736 532.753 71.9488C535.199 77.8127 538.833 82.7739 543.192 86.8787L398.176 288.258C394.102 286.808 389.92 285.589 385.576 284.786L376.479 132.795C391.911 126.445 402.79 111.276 402.79 93.5528C402.79 70.1202 383.786 51.1165 360.354 51.1165C336.921 51.1165 317.917 70.1202 317.917 93.5528C317.917 113.158 331.235 129.608 349.289 134.484L358.247 284.292C352.916 285.087 347.762 286.352 342.824 288.119L183.425 84.0702C189.737 75.3437 193.502 64.6421 193.502 53.0454C193.502 23.7489 169.753 0 140.456 0C111.16 0 87.4111 23.7489 87.4111 53.0454C87.4111 82.3419 111.16 106.091 140.456 106.091C148.242 106.091 155.61 104.37 162.269 101.361L318.751 301.56C310.464 308.311 303.481 316.598 298.327 326.05L154.8 276.399C154.838 275.628 155.031 274.902 155.031 274.108C155.031 249.24 134.863 229.048 109.972 229.048C85.0886 229.048 64.9198 249.24 64.9198 274.108C64.9198 299.014 85.0886 319.175 109.972 319.175C124.284 319.175 136.892 312.37 145.14 301.977L289.539 351.92C288.837 356.264 288.366 360.685 288.366 365.238C288.366 365.84 288.443 366.418 288.451 367.02L80.6984 434.509C72.9827 422.125 59.3491 413.816 43.6862 413.816C19.5593 413.816 0 433.375 0 457.502C0 481.637 19.5593 501.188 43.6862 501.188C66.5787 501.188 85.1504 483.512 87.0253 461.105L293.597 393.824C297.872 405.321 304.615 415.583 313.242 423.954L224.118 553.84C204.366 548.601 183.865 559.773 177.816 579.464C171.636 599.64 182.947 621.028 203.146 627.216C223.338 633.412 244.711 622.07 250.914 601.901C254.379 590.605 252.203 579.039 246.231 569.873L335.741 439.432C346.249 444.331 357.923 447.147 370.284 447.147C371.881 447.147 373.409 447.001 374.983 446.924L393.276 625.959C372.444 633.126 357.46 652.832 357.46 676.087C357.46 705.384 381.209 729.133 410.506 729.133C439.802 729.133 463.551 705.384 463.551 676.087C463.551 650.124 444.879 628.551 420.243 623.976L402.566 440.527C413.337 435.906 422.82 429.008 430.628 420.49L557.706 552.521C553.686 559.01 551.325 566.625 551.325 574.819C551.325 598.252 570.328 617.255 593.761 617.255C617.194 617.255 636.197 598.252 636.197 574.819C636.197 551.386 617.194 532.383 593.761 532.383C589.016 532.383 584.464 533.193 580.197 534.636C579.85 534.412 579.248 534.52 578.129 535.33L445.55 397.582C447.873 392.189 449.593 386.494 450.727 380.584L660.587 416.439C663.133 439.872 682.962 458.111 707.074 458.111C732.906 458.111 753.846 437.171 753.846 411.339C753.854 385.515 732.906 364.566 707.074 364.566Z" fill="#118DF0"/>
</svg>
